<?xml version="1.0" standalone="no"?><!DOCTYPE svg PUBLIC "-//W3C//DTD SVG 1.1//EN" "http://www.w3.org/Graphics/SVG/1.1/DTD/svg11.dtd"><svg t="1761643849528" class="icon" viewBox="0 0 1024 1024" version="1.1" xmlns="http://www.w3.org/2000/svg" p-id="16356" xmlns:xlink="http://www.w3.org/1999/xlink" width="200" height="200"><path d="M512 732.444444c-58.88 0-114.251852-22.945185-155.875556-64.568888S291.555556 570.88 291.555556 512s22.945185-114.251852 64.568888-155.875556 96.995556-64.568889 155.875556-64.568888 114.251852 22.945185 155.875556 64.568888 64.568889 96.995556 64.568888 155.875556-22.945185 114.251852-64.568888 155.875556-96.995556 64.568889-155.875556 64.568888z m0-398.222222c-98.038519 0-177.777778 79.739259-177.777778 177.777778S413.961481 689.777778 512 689.777778 689.777778 610.038519 689.777778 512 610.038519 334.222222 512 334.222222zM512 241.777778c-11.757037 0-21.333333-9.576296-21.333333-21.333334v-113.777777c0-11.757037 9.576296-21.333333 21.333333-21.333334s21.333333 9.576296 21.333333 21.333334v113.777777c0 11.757037-9.576296 21.333333-21.333333 21.333334zM305.872593 327.205926c-5.499259 0-10.903704-2.085926-15.075556-6.257778l-80.497778-80.497778c-8.343704-8.343704-8.343704-21.807407 0-30.151111s21.807407-8.343704 30.151111 0l80.497778 80.497778c8.343704 8.343704 8.343704 21.807407 0 30.151111a21.333333 21.333333 0 0 1-15.075555 6.257778zM220.444444 533.333333h-113.777777c-11.757037 0-21.333333-9.576296-21.333334-21.333333s9.576296-21.333333 21.333334-21.333333h113.777777c11.757037 0 21.333333 9.576296 21.333334 21.333333s-9.576296 21.333333-21.333334 21.333333zM225.374815 819.958519c-5.499259 0-10.903704-2.085926-15.075556-6.257778-8.343704-8.343704-8.343704-21.807407 0-30.151111l80.497778-80.497778c8.343704-8.343704 21.807407-8.343704 30.151111 0s8.343704 21.807407 0 30.151111l-80.497778 80.497778c-4.171852 4.171852-9.576296 6.257778-15.075555 6.257778zM512 938.666667c-11.757037 0-21.333333-9.576296-21.333333-21.333334v-113.777777c0-11.757037 9.576296-21.333333 21.333333-21.333334s21.333333 9.576296 21.333333 21.333334v113.777777c0 11.757037-9.576296 21.333333-21.333333 21.333334zM798.625185 819.958519c-5.499259 0-10.903704-2.085926-15.075555-6.257778l-80.497778-80.497778c-8.343704-8.343704-8.343704-21.807407 0-30.151111s21.807407-8.343704 30.151111 0l80.497778 80.497778c8.343704 8.343704 8.343704 21.807407 0 30.151111a21.333333 21.333333 0 0 1-15.075556 6.257778zM917.333333 533.333333h-113.777777c-11.757037 0-21.333333-9.576296-21.333334-21.333333s9.576296-21.333333 21.333334-21.333333h113.777777c11.757037 0 21.333333 9.576296 21.333334 21.333333s-9.576296 21.333333-21.333334 21.333333zM718.127407 327.205926c-5.499259 0-10.903704-2.085926-15.075555-6.257778-8.343704-8.343704-8.343704-21.807407 0-30.151111l80.497778-80.497778c8.343704-8.343704 21.807407-8.343704 30.151111 0s8.343704 21.807407 0 30.151111l-80.497778 80.497778c-4.077037 4.171852-9.576296 6.257778-15.075556 6.257778z" p-id="16357"></path></svg>